<svg width="33" height="33" viewBox="0 0 33 33" fill="none" xmlns="http://www.w3.org/2000/svg">
<g style="mix-blend-mode:plus-darker">
<path fill-rule="evenodd" clip-rule="evenodd" d="M10.0979 5.52339C14.352 5.05185 18.6451 5.05185 22.8992 5.52339C25.2546 5.78739 27.1548 7.64227 27.4312 10.0059C27.9358 14.3206 27.9358 18.6794 27.4312 22.9941C27.1548 25.3578 25.2546 27.2126 22.8992 27.4766C18.6451 27.9483 14.352 27.9483 10.0979 27.4766C7.74257 27.2126 5.84232 25.3578 5.56595 22.9941C5.06135 18.6799 5.06135 14.3215 5.56595 10.0073C5.70574 8.85896 6.22922 7.79152 7.05154 6.97793C7.87387 6.16434 8.94684 5.65229 10.0966 5.52477M11.6448 11.6463C11.8382 11.4531 12.1003 11.3447 12.3736 11.3447C12.6469 11.3447 12.909 11.4531 13.1023 11.6463L16.4986 15.0425L19.8948 11.6463C19.9892 11.5449 20.1031 11.4637 20.2296 11.4073C20.3561 11.351 20.4926 11.3206 20.6311 11.3182C20.7696 11.3158 20.9071 11.3412 21.0355 11.3931C21.1639 11.445 21.2806 11.5222 21.3785 11.6201C21.4764 11.718 21.5536 11.8347 21.6055 11.9631C21.6574 12.0915 21.6828 12.229 21.6804 12.3675C21.6779 12.506 21.6476 12.6425 21.5913 12.769C21.5349 12.8955 21.4536 13.0094 21.3523 13.1038L17.9561 16.5L21.3523 19.8963C21.5345 20.0918 21.6337 20.3503 21.6289 20.6175C21.6242 20.8846 21.516 21.1396 21.3271 21.3285C21.1381 21.5174 20.8832 21.6257 20.616 21.6304C20.3489 21.6351 20.0903 21.5359 19.8948 21.3538L16.4986 17.9575L13.1023 21.3538C13.0079 21.4551 12.8941 21.5364 12.7676 21.5927C12.6411 21.6491 12.5045 21.6794 12.366 21.6818C12.2276 21.6843 12.09 21.6588 11.9616 21.6069C11.8332 21.5551 11.7166 21.4779 11.6186 21.3799C11.5207 21.282 11.4435 21.1654 11.3917 21.037C11.3398 20.9086 11.3143 20.771 11.3168 20.6326C11.3192 20.4941 11.3495 20.3575 11.4059 20.231C11.4622 20.1045 11.5435 19.9907 11.6448 19.8963L15.0411 16.5L11.6448 13.1038C11.4517 12.9104 11.3432 12.6483 11.3432 12.375C11.3432 12.1017 11.4517 11.8396 11.6448 11.6463Z" fill="#FF90C8"/>
</g>
</svg>
