<svg id="wave" style="transform:rotate(0deg); transition: 0.3s" viewBox="0 0 1440 350" version="1.1" xmlns="http://www.w3.org/2000/svg"><defs><linearGradient id="sw-gradient-0" x1="0" x2="0" y1="1" y2="0"><stop stop-color="rgba(229, 248, 255, 1)" offset="0%"></stop><stop stop-color="rgba(195, 239, 255, 1)" offset="100%"></stop></linearGradient></defs><path style="transform:translate(0, 0px); opacity:1" fill="url(#sw-gradient-0)" d="M0,105L18.5,116.7C36.9,128,74,152,111,163.3C147.7,175,185,175,222,157.5C258.5,140,295,105,332,93.3C369.2,82,406,93,443,116.7C480,140,517,175,554,157.5C590.8,140,628,70,665,64.2C701.5,58,738,117,775,145.8C812.3,175,849,175,886,157.5C923.1,140,960,105,997,110.8C1033.8,117,1071,163,1108,186.7C1144.6,210,1182,210,1218,227.5C1255.4,245,1292,280,1329,274.2C1366.2,268,1403,222,1440,186.7C1476.9,152,1514,128,1551,151.7C1587.7,175,1625,245,1662,233.3C1698.5,222,1735,128,1772,105C1809.2,82,1846,128,1883,145.8C1920,163,1957,152,1994,134.2C2030.8,117,2068,93,2105,99.2C2141.5,105,2178,140,2215,157.5C2252.3,175,2289,175,2326,169.2C2363.1,163,2400,152,2437,163.3C2473.8,175,2511,210,2548,192.5C2584.6,175,2622,105,2640,70L2658.5,35L2658.5,350L2640,350C2621.5,350,2585,350,2548,350C2510.8,350,2474,350,2437,350C2400,350,2363,350,2326,350C2289.2,350,2252,350,2215,350C2178.5,350,2142,350,2105,350C2067.7,350,2031,350,1994,350C1956.9,350,1920,350,1883,350C1846.2,350,1809,350,1772,350C1735.4,350,1698,350,1662,350C1624.6,350,1588,350,1551,350C1513.8,350,1477,350,1440,350C1403.1,350,1366,350,1329,350C1292.3,350,1255,350,1218,350C1181.5,350,1145,350,1108,350C1070.8,350,1034,350,997,350C960,350,923,350,886,350C849.2,350,812,350,775,350C738.5,350,702,350,665,350C627.7,350,591,350,554,350C516.9,350,480,350,443,350C406.2,350,369,350,332,350C295.4,350,258,350,222,350C184.6,350,148,350,111,350C73.8,350,37,350,18,350L0,350Z"></path></svg>