<svg id="wave" style="transform:rotate(0deg); transition: 0.3s" viewBox="0 0 1440 350" version="1.1" xmlns="http://www.w3.org/2000/svg"><defs><linearGradient id="sw-gradient-0" x1="0" x2="0" y1="1" y2="0"><stop stop-color="rgba(255, 194, 225, 1)" offset="0%"></stop><stop stop-color="rgba(255, 144, 200, 1)" offset="100%"></stop></linearGradient></defs><path style="transform:translate(0, 0px); opacity:1" fill="url(#sw-gradient-0)" d="M0,175L18.5,163.3C36.9,152,74,128,111,99.2C147.7,70,185,35,222,17.5C258.5,0,295,0,332,40.8C369.2,82,406,163,443,175C480,187,517,128,554,99.2C590.8,70,628,70,665,70C701.5,70,738,70,775,110.8C812.3,152,849,233,886,227.5C923.1,222,960,128,997,87.5C1033.8,47,1071,58,1108,93.3C1144.6,128,1182,187,1218,175C1255.4,163,1292,82,1329,52.5C1366.2,23,1403,47,1440,75.8C1476.9,105,1514,140,1551,163.3C1587.7,187,1625,198,1662,221.7C1698.5,245,1735,280,1772,268.3C1809.2,257,1846,198,1883,198.3C1920,198,1957,257,1994,233.3C2030.8,210,2068,105,2105,58.3C2141.5,12,2178,23,2215,35C2252.3,47,2289,58,2326,87.5C2363.1,117,2400,163,2437,180.8C2473.8,198,2511,187,2548,186.7C2584.6,187,2622,198,2640,204.2L2658.5,210L2658.5,350L2640,350C2621.5,350,2585,350,2548,350C2510.8,350,2474,350,2437,350C2400,350,2363,350,2326,350C2289.2,350,2252,350,2215,350C2178.5,350,2142,350,2105,350C2067.7,350,2031,350,1994,350C1956.9,350,1920,350,1883,350C1846.2,350,1809,350,1772,350C1735.4,350,1698,350,1662,350C1624.6,350,1588,350,1551,350C1513.8,350,1477,350,1440,350C1403.1,350,1366,350,1329,350C1292.3,350,1255,350,1218,350C1181.5,350,1145,350,1108,350C1070.8,350,1034,350,997,350C960,350,923,350,886,350C849.2,350,812,350,775,350C738.5,350,702,350,665,350C627.7,350,591,350,554,350C516.9,350,480,350,443,350C406.2,350,369,350,332,350C295.4,350,258,350,222,350C184.6,350,148,350,111,350C73.8,350,37,350,18,350L0,350Z"></path></svg>